<?xml version="1.0" encoding="utf-8"?>
<!-- Generator: Adobe Illustrator 27.7.0, SVG Export Plug-In . SVG Version: 6.00 Build 0)  -->
<svg version="1.1" id="Capa_1" xmlns="http://www.w3.org/2000/svg" xmlns:xlink="http://www.w3.org/1999/xlink" x="0px" y="0px"
	 viewBox="0 0 1080 1080" style="enable-background:new 0 0 1080 1080;" xml:space="preserve">
<style type="text/css">
	.st0{fill:#2B2B29;}
	.st1{fill:#FFFFFF;stroke:#55B3B7;stroke-width:6.2616;stroke-miterlimit:10;}
	.st2{fill:#FFFFFF;stroke:#55B3B7;stroke-width:4.6962;stroke-miterlimit:10;}
	.st3{fill:#55B3B7;}
	.st4{fill:#55B3B7;stroke:#FFFFFF;stroke-width:6.2616;stroke-miterlimit:10;}
	.st5{fill:#55B3B7;stroke:#FFFFFF;stroke-width:4.6962;stroke-miterlimit:10;}
	.st6{fill:#FFFFFF;}
	.st7{fill:#2B2B29;stroke:#55B3B7;stroke-width:6.2616;stroke-miterlimit:10;}
	.st8{fill:#2B2B29;stroke:#55B3B7;stroke-width:4.6962;stroke-miterlimit:10;}
	.st9{fill:#55B3B7;stroke:#2B2B29;stroke-width:6.2616;stroke-miterlimit:10;}
	.st10{fill:#55B3B7;stroke:#2B2B29;stroke-width:4.6962;stroke-miterlimit:10;}
</style>
<rect x="-13.6" y="-14.8" class="st0" width="1113.4" height="1113.4"/>
<g>
	<g>
		<path class="st4" d="M289.4,588.5c7.4,6.6,11.1,16.4,11.1,29.4v39.3h-73.4v-36c0-6.9-3-10.3-8.9-10.3h-17.6v46.3h-71.2V474.6
			h107.3c20.8,0,36.2,4.1,46.3,12.2c10.1,8.1,15.2,20.9,15.2,38.2v7.3c0,13-3.7,23.2-11.1,30.5c-7.4,7.3-18.5,11.3-33.3,12.1v2.7
			C270.1,578.2,282,581.9,289.4,588.5z M200.6,561.5h17.1c3.4,0,5.8-0.8,7.2-2.3c1.4-1.5,2-4.4,2-8.5v-16.3c0-3.6-0.7-6-2.2-7
			c-1.4-1.1-4-1.6-7.6-1.6h-16.5V561.5z"/>
		<path class="st4" d="M319.2,474.6h138.4V526h-66.9v19h64.5v42.8h-64.5v18.2h66.9v51.2H319.2V474.6z"/>
		<path class="st4" d="M536.5,605.7c2.9,0,5.1-0.5,6.5-1.5c1.4-1,2.2-2.8,2.2-5.6c0-3.1-0.6-5.2-1.9-6.4c-1.3-1.2-3.6-2.1-7-2.8
			l-21.4-4.1c-10.7-2-19.1-5-25.5-8.9c-6.3-4-11-9.6-14.1-16.8c-3.1-7.2-4.6-16.8-4.6-28.7c0-14.3,2.3-25.8,6.9-34.5
			c4.6-8.8,11.9-15.2,21.9-19.4c10-4.2,23.3-6.2,40-6.2c25.3,0,47.4,2.1,66.4,6.2l-0.3,48.8c-14.5-0.2-33.3-0.3-56.6-0.3
			c-3.6,0-6.2,0.5-7.9,1.6c-1.6,1.1-2.4,3-2.4,5.7c0,2.5,0.5,4.3,1.6,5.3c1.1,1,3.2,1.9,6.2,2.6l22.2,5.7c11,2.7,19.8,6.2,26.3,10.6
			c6.5,4.3,11.2,10.1,14.2,17.2c3,7.1,4.5,16.3,4.5,27.5c0,21.1-5.5,36.3-16.4,45.4c-10.9,9.1-28.7,13.7-53.2,13.7
			c-13.7,0-25.6-0.6-35.8-1.8c-10.1-1.2-22-3.1-35.8-5.8l0.3-47.7C488,605.6,509.2,605.7,536.5,605.7z"/>
		<path class="st4" d="M688.7,605.7c2.9,0,5.1-0.5,6.5-1.5c1.4-1,2.2-2.8,2.2-5.6c0-3.1-0.6-5.2-1.9-6.4c-1.3-1.2-3.6-2.1-7-2.8
			l-21.4-4.1c-10.7-2-19.1-5-25.5-8.9c-6.3-4-11-9.6-14.1-16.8c-3.1-7.2-4.6-16.8-4.6-28.7c0-14.3,2.3-25.8,6.9-34.5
			c4.6-8.8,11.9-15.2,21.9-19.4c10-4.2,23.3-6.2,40-6.2c25.3,0,47.4,2.1,66.4,6.2l-0.3,48.8c-14.5-0.2-33.3-0.3-56.6-0.3
			c-3.6,0-6.2,0.5-7.9,1.6c-1.6,1.1-2.4,3-2.4,5.7c0,2.5,0.5,4.3,1.6,5.3c1.1,1,3.2,1.9,6.2,2.6l22.2,5.7c11,2.7,19.8,6.2,26.3,10.6
			c6.5,4.3,11.2,10.1,14.2,17.2c3,7.1,4.5,16.3,4.5,27.5c0,21.1-5.5,36.3-16.4,45.4c-10.9,9.1-28.7,13.7-53.2,13.7
			c-13.7,0-25.6-0.6-35.8-1.8c-10.1-1.2-22-3.1-35.8-5.8l0.3-47.7C640.2,605.6,661.4,605.7,688.7,605.7z"/>
		<path class="st4" d="M784.2,500.7c4.4-10.9,12.6-18.6,24.7-23.2c12-4.5,30.4-6.8,55.1-6.8c24.6,0,42.9,2.3,55.1,6.8
			c12.2,4.5,20.5,12.2,24.9,23.2c4.4,10.9,6.6,27.2,6.6,48.9v32.8c0,21.9-2.3,38.2-6.9,49.2c-4.6,10.9-13,18.6-25.1,22.9
			c-12.1,4.3-30.3,6.5-54.7,6.5c-24.6,0-42.8-2.2-54.9-6.5c-12-4.3-20.3-11.9-24.8-22.8c-4.5-10.8-6.8-27.3-6.8-49.3v-32.8
			C777.6,527.9,779.8,511.6,784.2,500.7z M850,596.9c0.6,1.9,2,3.3,4.1,4.1c2.1,0.8,5.4,1.2,9.9,1.2c4.5,0,7.8-0.4,9.9-1.2
			c2.1-0.8,3.4-2.2,4.1-4.1c0.6-1.9,0.9-4.8,0.9-8.8v-44.7c0-4-0.3-6.9-0.9-8.7c-0.6-1.8-2-3.1-4.1-3.9c-2.1-0.8-5.4-1.2-9.9-1.2
			c-4.5,0-7.8,0.4-9.9,1.2c-2.1,0.8-3.4,2.1-4.1,3.9c-0.6,1.8-0.9,4.7-0.9,8.7v44.7C849.1,592,849.4,595,850,596.9z"/>
	</g>
	<g>
		<path class="st5" d="M847.7,449.5h12.2c0.2,0.4,0.6,0.9,1.2,1.4c1.5,1.1,1.7,1,1.7,1.4c0,0.1,0,0.1,0,0.2c0,0.1-0.1,0.2-0.1,0.4
			c-0.2,0.5-0.3,1.3,0,2.4h-11.3c-4.3,0-7.8,3.5-7.8,7.8v8h-3v-8c0-4.6,3-8.6,7.1-10.1h-0.1c-4.9,0-8.9,4-8.9,8.9v9.2h-3.5v-9.2
			C835.4,455.1,840.9,449.5,847.7,449.5z"/>
		<path class="st5" d="M777,347.7c1.6-1.3,6.4-1.5,8.8-1.3c2.4,0.2,9.5-0.4,13.1,0c3.6,0.4,4.1,2.3,4.1,2.3s0.2,0.4-0.1,2.1
			c-0.3,1.7-1.2,2.2-1.2,3.2c-0.1,1,0.1,2.2,1.1,3.4c1,1.2,2.3,1.7,5.9,4.4c3.6,2.7,10.7,7.6,12,8.6c1.3,1,3,4.6,4.4,6
			c1.3,1.4,3.3,3.5,5.2,5.1c1.8,1.6,3.2,3.1,3.2,3.1s0.9,0.4,3,1.7c2.1,1.4,12.4,7.4,12.4,7.4s1.1,0.4,2.5,0.8
			c1.5,0.4,1.9,0.8,3.4,1.5s3.3,0.7,3.3,0.7s1.4,0.3,2.9,0.6c1.5,0.3,2.7,1.5,4.9,2.9s3.5,2.2,3.9,2.8c0.4,0.7,0.3,3.3,1.1,4.4
			c0.8,1.1,0.7,2.3,1.1,3.2c0.4,0.9,2,1.5,2,1.5s2,0.9,3.3,1.2c1.4,0.3,4.8,0.2,7.7,0.9c2.9,0.7,7.4,2.2,7.4,2.2s6.7,1.1,10.4,3.3
			c3.7,2.2,4.8,7.4,4.8,7.4c4.4,1.8,3.4,5.3,3.7,6.4c0.3,1.1,0.4,0.9,1.2,1.2c0.7,0.2,2.8,0,5.4-1.5c2.5-1.5,6.8-1.8,8.4-1.4
			c1.6,0.4,7.3,2.2,8,8c0.7,5.8-1.8,9.9-3.8,11.3c-2,1.4-5.1,1.6-5.1,1.6s-0.8-0.4-1.5-0.4c-0.7,0-0.6-0.2-1.8,0.9
			c-1.2,1.1-2.1,2-2.9,1.7c-0.7-0.3-0.7-1.7-1.1-1.9c-0.4-0.2-1.5-0.4-1.5-0.4c-0.8,0.1-1-0.3-1-0.3c-0.9,0.8-0.9,0.1-1.9,0.1
			c-0.9-0.1-2.7-0.8-3.5-1.4c-0.8-0.6-0.9-2.8-1.5-3.4c-0.6-0.7-3.6-2.7-5.9-3.4c-2.3-0.7-2.8-0.4-5.7-0.1c-3,0.4-6.1-0.9-6.1-0.9
			c-5.8,0.7-8.8-2.2-10.6-3.2c-1.8-1-0.8-0.9-2.9-1.4c-2.1-0.4-3.7-2.2-3.7-2.2c-0.7,1.4-2.4,2-3.2,3.8c-0.8,1.8-1.4,4.6-1.2,5.2
			c0.2,0.6,1.4,0.4,2.5,1.1c1.1,0.7,1.7,0.5,2.2,2.1c0.1,0.2,0.1,0.5,0.2,0.8h10.8c6.8,0,12.4,5.5,12.4,12.4v9.2h-3.5v-9.2
			c0-4.9-4-8.9-8.9-8.9h-2.2c4.1,1.5,7.1,5.5,7.1,10.1v8h-3v-8c0-4.3-3.5-7.8-7.8-7.8h-5.7c-0.1,0.2-0.2,0.3-0.4,0.4
			c-1.2,0.8-2.1,0.1-2.1,0.1c-0.9,1.1-2.2,0.2-2.2,0.2c-1.6,1.1-2.6,0.1-2.6,0.1c-2.6,1-2.8-1-3-1.7c-0.1-0.7,0.6-2.2,0.3-2.6
			c-0.3-0.4-2.1-1.5-2.5-2.5s0.6-2.5,0.5-3.4c-0.1-0.9,0.1-2.5,0.7-4.3c0.6-1.8,1.2-4.4,1.2-5.5c0-1.2,0.9-5,0.9-5
			c-1.5-0.9-4.7-2.1-4.7-2.1s-5.7-1.6-7-1.7c-1.4-0.1-2.8-1.1-4.7-2.5c-1.9-1.4-3.9-4.4-4.6-4.8c-0.7-0.4-4-1.5-6.1-2
			c-2.1-0.6-3.3-2-6-4.2c-2.7-2.2-5.2-2.8-5.4-3.6c-0.3-0.8,0.5-2.5,0.5-2.5s-3.8-1.6-3.8-2.3c0-0.7,1.1-3.4,1.7-4.6
			c0.7-1.2,1.2-2.2,1.2-2.2c-1.2-0.9-2.8-3.7-4.1-6.2c-0.2-0.4-0.4-0.8-0.7-1.3c-1.9-2.2-5.5-6.3-7.1-8.6c-2.3-3.2-6-7.2-6.9-8.5
			c-1-1.3-3.6-3.3-3.6-3.3s-0.5-0.4-1-0.6c-0.5-0.2-3.6-2.6-4.4-3.1c-0.7-0.5-1.5,0.3-2.1,0c-0.6-0.3-1-0.8-1.7-1.3
			c-0.8-0.5-2.2-1.7-3.4-2.6c-1.2-0.9-1.7-1.5-2.4-1.8c-0.7-0.4-1.4-0.9-2.5-1.2c-1.1-0.3-2.5-1-3.4-1.2c-1-0.1-1.9-0.3-2.6-0.8
			c-0.7-0.4-1-1.3-0.4-1.6c0,0,2.9-0.2,4.4,0.1c1.5,0.4,2.4,0.6,3.3,1.3c0.8,0.7,2.4,2.4,3.2,2.8c0.8,0.5,1.4,0.7,2.2,0.2
			c0,0,2.4,1,3.5,1.9c1.1,0.8,1.9,1.7,2.4,1.7c0.5,0.1,0.7,0,0.7,0s3.3,2.9,5.7,5.6c2.3,2.6,8.1,9.3,8.8,10.1
			c0.7,0.8,3.2,3.9,4.2,5.4c0.4,0.6,0.8,1.2,1.2,1.7c-1-1.8-2.1-3.5-3.1-4.8c-2.1-2.5-10.2-12-11.8-13.7c-1.5-1.7-5-4.7-5-4.7
			s-0.5,0.4-1.6-0.6s-5.1-3.1-5.1-3.1s-0.9,0.8-1.8,0.1c-0.9-0.7-3.1-3.1-4.9-3.8c-1.7-0.7-3.7-0.7-6.7-0.7s-3.8-1.2-4.4-3.2
			C773.6,351,775.4,349,777,347.7z"/>
		<path class="st5" d="M805.9,358.3c-0.1,0.5-0.7,0.7-0.7,0.7l-0.8-0.5c0,0-0.9-0.6-1.3-1c-0.4-0.4-0.6-0.8-1.1-1.7
			c-0.5-0.9-0.1-2.2-0.1-2.2s2.3,0.2,3,0.4c0.6,0.2,1.4,0.9,1.5,1.3c0.1,0.4,0.1,1.6-0.1,2C806.1,357.8,806,357.8,805.9,358.3z"/>
	</g>
	<g>
		<path class="st6" d="M176.9,714.2c0-11.5,8.1-19.5,19.7-19.5c10.7,0,18.4,6.3,20.1,16.4h-12.7c-1-2.8-3.6-4.7-6.8-4.7
			c-4.3,0-7.3,3.1-7.3,7.8c0,4.6,2.9,7.7,7.2,7.7c3.4,0,6-1.9,7.1-4.8h12.7c-1.3,10-9.4,16.6-20.1,16.6
			C184.9,733.8,176.9,725.8,176.9,714.2z"/>
		<path class="st6" d="M221.6,695.5h26.9v9.6h-14.4v4.3h13v9.3h-13v4.5h14.9v9.7h-27.5V695.5z"/>
		<path class="st6" d="M254.5,695.5H265l12,16.1h0.2l-0.1-4.8v-11.4h12.7V733h-10.5l-12-16.3h-0.2l0.1,4.9V733h-12.7V695.5z"/>
		<path class="st6" d="M305.3,707.2h-10.8v-11.7h34.6v11.7h-10.8V733h-12.9V707.2z"/>
		<path class="st6" d="M334,695.5h18.5c9.5,0,15.3,5.2,15.3,13.7c0,5-2,8.8-5.5,11.2l6.3,12.5h-14.2l-4.4-9.9h-3v9.9H334V695.5z
			 M350.4,713.5c2.8,0,4.4-1.4,4.4-4c0-2.6-1.6-4-4.4-4h-3.8v8H350.4z"/>
		<path class="st6" d="M373.5,695.5h26.9v9.6H386v4.3h13v9.3h-13v4.5H401v9.7h-27.5V695.5z"/>
		<path class="st6" d="M418.3,695.5h16.8c12.4,0,20.5,7.4,20.5,18.7c0,11.3-8.1,18.7-20.5,18.7h-16.8V695.5z M434.8,721.6
			c4.8,0,7.8-2.8,7.8-7.3c0-4.6-3-7.3-7.8-7.3h-3.7v14.6H434.8z"/>
		<path class="st6" d="M458.6,695.5H469l-0.4,15.3h-9.5L458.6,695.5z"/>
		<path class="st6" d="M474.1,695.5h26.9v9.6h-14.4v4.3h13v9.3h-13v4.5h14.9v9.7h-27.5V695.5z"/>
		<path class="st6" d="M507.1,695.5h10.5l12,16.1h0.2l-0.1-4.8v-11.4h12.7V733h-10.5l-12-16.3h-0.2l0.1,4.9V733h-12.7V695.5z"/>
		<path class="st6" d="M557.9,707.2H547v-11.7h34.6v11.7h-10.8V733h-12.9V707.2z"/>
		<path class="st6" d="M586.5,695.5H605c9.5,0,15.3,5.2,15.3,13.7c0,5-2,8.8-5.5,11.2l6.3,12.5h-14.2l-4.4-9.9h-3v9.9h-12.8V695.5z
			 M602.9,713.5c2.8,0,4.4-1.4,4.4-4c0-2.6-1.6-4-4.4-4h-3.8v8H602.9z"/>
		<path class="st6" d="M626,695.5H653v9.6h-14.4v4.3h13v9.3h-13v4.5h14.9v9.7H626V695.5z"/>
		<path class="st6" d="M658.9,695.5h10.5l12,16.1h0.2l-0.1-4.8v-11.4h12.7V733h-10.5l-12-16.3h-0.2l0.1,4.9V733h-12.7V695.5z"/>
		<path class="st6" d="M711.5,695.5H725L739,733h-13.6l-1.7-4.6h-11l-1.7,4.6h-13.5L711.5,695.5z M721.7,719.8l-3.3-10.3h-0.2
			l-3.3,10.3H721.7z"/>
		<path class="st6" d="M742.5,695.5H753l11.6,15.7l11.7-15.7h10.4V733h-12.6v-8.6l0.1-7.7h-0.2l-5.9,8.1H761l-5.9-8.1l-0.2,0.1
			l0.1,7.7v8.6h-12.6V695.5z"/>
		<path class="st6" d="M793.5,695.5h26.9v9.6H806v4.3h13v9.3h-13v4.5H821v9.7h-27.5V695.5z"/>
		<path class="st6" d="M826.4,695.5h10.5l12,16.1h0.2l-0.1-4.8v-11.4h12.7V733h-10.5l-12-16.3H839l0.1,4.9V733h-12.7V695.5z"/>
		<path class="st6" d="M877.2,707.2h-10.8v-11.7H901v11.7h-10.8V733h-12.9V707.2z"/>
	</g>
</g>
</svg>
